# xmcd CD database file
# Copyright (C) 1993-1998 Ti Kan
#
# Track frame offsets:
#	150
#	14260
#	29390
#	44247
#	58755
#	72477
#	87902
#	104610
#	118905
#	133355
#	149620
#	164650
#	180652
#	194497
#	208660
#	224080
#	237292
#	251007
#	265437
#	278410
#	291762
#	305030
#
# Disc length: 4230 seconds
#
# Revision: 0
# Processed by: cddbd v1.4b41PL1 Copyright (c) Steve Scherf et al.
# Submitted via: CDmax 1.5
#
DISCID=76108416
DTITLE=Peg Leg Howell and Eddie Anthony - Complete Recorded Works In Chronologic
DTITLE=al Order Volume 1
DYEAR=1900
DGENRE=
TTITLE0=Peg Leg Howell: Coal Man Blues
TTITLE1=Peg Leg Howell: Tishamingo Blues
TTITLE2=Peg Leg Howell: New Prison Blues
TTITLE3=Peg Leg Howell: Fo' Day Blues
TTITLE4=Peg Leg Howell: New Jelly Roll Blues
TTITLE5=Peg Leg Howell: Beaver Slide Rag
TTITLE6=Peg Leg Howell: Papa Stobb Blues
TTITLE7=Peg Leg Howell: Sadie Lee Blues
TTITLE8=Peg Leg Howell: Too Tight Blues
TTITLE9=Peg Leg Howell: Moanin' And Groanin' Blues
TTITLE10=Peg Leg Howell: Hobo Blues
TTITLE11=Peg Leg Howell: Peg Leg Stomp
TTITLE12=Peg Leg Howell: Doin' Wrong
TTITLE13=Peg Leg Howell: Skin Game Blues
TTITLE14=Henry Williams and Eddie Anthony: Georgia Crawl
TTITLE15=Henry Williams and Eddie Anthony: Lonesome Blues
TTITLE16=Peg Leg Howell: Please Ma'am
TTITLE17=Peg Leg Howell: Rock And Gravel Blues
TTITLE18=Peg Leg Howell: Low-Down Rounder Blues
TTITLE19=Peg Leg Howell: Fairy Blues
TTITLE20=Sloppy Henry: Canned Heat Blues
TTITLE21=Sloppy Henry: Say I Do It
EXTD=
EXTT0=
EXTT1=
EXTT2=
EXTT3=
EXTT4=
EXTT5=
EXTT6=
EXTT7=
EXTT8=
EXTT9=
EXTT10=
EXTT11=
EXTT12=
EXTT13=
EXTT14=
EXTT15=
EXTT16=
EXTT17=
EXTT18=
EXTT19=
EXTT20=
EXTT21=
PLAYORDER=
